<?xml version="1.0" standalone="no"?>
<!DOCTYPE svg PUBLIC "-//W3C//DTD SVG 20010904//EN"
 "http://www.w3.org/TR/2001/REC-SVG-20010904/DTD/svg10.dtd">
<svg version="1.0" xmlns="http://www.w3.org/2000/svg"
 width="564.000000pt" height="564.000000pt" viewBox="0 0 564.000000 564.000000"
 preserveAspectRatio="xMidYMid meet">
<metadata>
Created by potrace 1.14, written by Peter Selinger 2001-2017
</metadata>
<g transform="translate(0.000000,564.000000) scale(0.100000,-0.100000)"
fill="#000000" stroke="none">
<path d="M2405 5622 c-67 -32 -78 -47 -240 -320 -5 -10 -34 -57 -64 -106 -68
-114 -81 -145 -81 -202 0 -54 22 -104 61 -141 15 -15 135 -91 266 -170 131
-79 248 -154 259 -167 50 -53 94 -146 109 -231 2 -16 7 -41 10 -55 13 -59 6
-310 -10 -400 -3 -14 -7 -41 -10 -60 -10 -67 -28 -145 -35 -153 -10 -11 -232
64 -320 108 -213 107 -343 238 -381 387 -6 26 -12 169 -13 363 l-2 320 -27 42
c-32 50 -90 92 -138 98 -70 11 -584 6 -613 -5 -50 -18 -103 -68 -121 -112 -16
-37 -18 -83 -20 -339 -2 -325 -1 -335 62 -401 53 -55 82 -59 414 -62 325 -3
321 -2 414 -59 41 -25 149 -143 193 -211 90 -139 227 -455 206 -476 -5 -5 -20
-11 -34 -14 -31 -7 -154 -34 -157 -35 -2 -1 -4 -1 -5 -2 -51 -13 -287 -18
-353 -7 -126 19 -234 72 -305 149 -36 39 -120 171 -120 189 0 6 -4 10 -10 10
-5 0 -10 4 -10 10 0 5 -27 55 -60 111 -33 55 -60 103 -60 105 0 10 -75 121
-94 139 -43 41 -119 62 -180 51 -18 -4 -97 -44 -177 -90 -387 -223 -381 -219
-409 -281 -37 -81 -22 -155 52 -262 18 -27 32 -50 32 -53 -1 -5 10 -25 53 -92
12 -21 23 -40 23 -42 0 -14 114 -195 140 -223 36 -38 106 -63 161 -58 50 5 99
28 216 101 49 30 95 57 103 61 8 4 63 35 122 70 140 83 222 102 328 79 14 -3
34 -8 45 -10 31 -6 124 -44 190 -78 51 -26 220 -132 235 -148 3 -3 21 -18 40
-34 19 -16 56 -47 83 -69 l47 -41 -64 -61 c-165 -156 -280 -231 -441 -291 -51
-18 -145 -31 -201 -27 -83 7 -142 32 -339 146 -104 61 -216 125 -248 144 -101
57 -210 51 -276 -14 -22 -23 -109 -163 -144 -233 -4 -8 -18 -33 -30 -55 -132
-229 -141 -247 -141 -306 1 -41 7 -68 24 -95 29 -48 48 -64 130 -110 36 -21
97 -55 135 -78 39 -22 72 -41 75 -41 3 0 37 -19 75 -42 128 -75 167 -90 216
-88 85 4 142 46 194 142 195 364 305 523 360 523 8 0 15 4 15 9 0 12 141 52
208 59 134 15 342 6 477 -19 52 -10 76 -14 106 -18 4 -1 3 -18 -2 -38 -5 -21
-12 -47 -14 -58 -10 -45 -58 -180 -85 -241 -67 -149 -188 -297 -280 -344 -107
-54 -122 -56 -495 -65 -287 -6 -293 -7 -353 -65 -57 -54 -64 -84 -62 -269 3
-417 5 -435 34 -485 47 -81 113 -110 241 -108 490 8 528 12 588 70 66 63 66
62 57 582 -2 72 2 143 9 167 25 91 130 210 266 303 138 93 443 231 457 207 9
-17 56 -195 63 -242 16 -103 18 -125 19 -190 1 -64 -6 -142 -18 -204 -7 -30
-38 -114 -46 -121 -3 -3 -11 -16 -18 -30 -24 -47 -127 -146 -168 -161 -14 -5
-268 -164 -321 -200 -23 -16 -45 -29 -50 -29 -16 -1 -81 -66 -99 -100 -11 -22
-18 -57 -18 -95 -1 -56 3 -68 58 -160 33 -55 63 -101 68 -103 4 -2 8 -8 8 -14
0 -5 12 -28 28 -51 15 -23 32 -51 39 -62 105 -174 125 -198 186 -225 84 -37
157 -19 302 77 57 38 268 172 309 196 40 24 86 71 86 87 0 9 4 20 10 26 20 20
18 108 -4 152 -22 44 -32 59 -200 326 -58 93 -111 186 -116 207 -48 177 54
446 277 737 35 45 68 82 72 82 27 0 291 -304 291 -335 0 -8 3 -15 8 -17 12 -5
48 -79 73 -148 28 -79 34 -222 12 -285 -8 -22 -48 -107 -90 -190 -212 -416
-201 -392 -198 -444 6 -100 47 -147 195 -224 47 -24 137 -71 200 -105 211
-111 207 -110 266 -106 59 3 116 30 149 71 11 13 37 57 58 96 55 104 188 358
204 388 25 50 31 114 15 160 -28 83 -48 100 -257 208 -77 40 -146 78 -152 83
-7 6 -13 8 -13 5 0 -4 -27 9 -59 28 -33 19 -64 35 -70 35 -6 0 -11 5 -11 10 0
6 -6 10 -14 10 -25 0 -124 128 -131 170 0 3 -8 28 -17 55 -9 28 -19 68 -22 90
-3 22 -9 63 -13 90 -15 110 -3 350 23 478 6 27 8 28 42 22 50 -10 51 -10 102
-24 25 -7 52 -15 60 -16 42 -9 194 -76 259 -114 110 -65 237 -198 250 -263 1
-4 8 -23 16 -42 17 -41 23 -119 40 -508 8 -174 31 -228 122 -279 40 -23 77
-23 478 -4 217 10 260 29 307 134 18 39 19 56 13 185 -4 77 -9 179 -11 226
-10 232 -15 260 -62 316 -20 23 -78 57 -102 60 -58 7 -164 4 -415 -11 -89 -6
-207 -6 -230 -1 -197 44 -433 358 -565 753 -60 181 -81 287 -76 390 5 100 28
249 52 338 8 33 18 70 20 82 8 43 66 199 101 273 105 221 240 359 398 405 60
17 63 17 565 2 47 -2 100 0 118 4 51 11 107 55 134 107 27 50 28 59 33 318 1
67 5 126 9 133 4 6 3 11 -2 11 -4 0 -6 19 -3 43 15 104 -14 209 -69 255 -60
50 -86 53 -461 55 -289 2 -290 2 -357 -92 -26 -36 -28 -56 -37 -356 -3 -104
-8 -219 -11 -255 -5 -71 -36 -149 -77 -195 -15 -17 -30 -34 -35 -40 -12 -14
-85 -77 -109 -93 -112 -78 -257 -149 -411 -203 -112 -38 -127 -39 -133 -9 0 3
-2 12 -4 20 -37 171 -44 228 -41 365 2 77 6 151 9 165 4 14 10 39 13 55 8 36
50 130 69 153 7 9 25 31 39 49 30 36 99 83 206 140 233 125 370 204 395 229
30 30 57 79 48 88 -4 3 -2 6 3 6 11 0 11 62 0 108 -4 19 -30 72 -57 119 -27
46 -49 86 -49 87 0 14 -185 322 -202 337 -37 31 -87 49 -139 49 -47 0 -100
-23 -254 -110 -22 -13 -89 -50 -150 -83 -160 -88 -182 -103 -212 -149 -24 -36
-28 -52 -28 -113 0 -40 5 -78 11 -86 6 -8 29 -48 51 -89 22 -41 49 -91 60
-110 101 -179 158 -289 168 -324 9 -32 14 -161 5 -161 -1 0 -4 -13 -6 -29 -21
-129 -158 -363 -319 -545 -67 -76 -62 -75 -110 -23 -104 113 -172 207 -225
312 -43 85 -46 94 -66 165 -16 57 -21 176 -10 223 4 12 8 31 10 41 7 30 29 69
183 329 134 224 145 246 148 298 6 94 -27 146 -132 211 -34 21 -113 70 -175
108 -122 76 -120 74 -203 123 -72 43 -150 52 -210 24z m850 -2137 c71 -12 237
-80 255 -104 3 -4 16 -15 30 -24 151 -103 268 -324 274 -515 14 -443 -379
-783 -814 -704 -164 30 -307 116 -425 257 -28 33 -97 170 -114 225 -35 117
-34 290 2 395 14 40 20 54 35 85 95 201 305 360 512 387 25 3 47 7 49 9 6 5
148 -3 196 -11z"/>
<path d="M3015 3350 c-195 -40 -359 -194 -419 -394 -13 -44 -15 -225 -3 -271
62 -236 271 -402 514 -410 116 -4 205 21 308 87 179 113 275 323 243 532 -12
83 -17 98 -60 182 -55 109 -155 198 -283 248 -53 22 -87 28 -163 31 -54 2
-115 -1 -137 -5z"/>
</g>
</svg>
