<svg xmlns="http://www.w3.org/2000/svg" width="1170" height="394" viewBox="0 0 1170 394">
  <path id="Path_7755" data-name="Path 7755" d="M10285.163,116.068s-.328-83.283-.14-89.813.663-15.3,18.943-15.42,142.4.146,153.2,0,20.258,1.687,26.661,8.387,11.845,12.168,15.634,15.666,8.643,6.552,17.447,6.749,699.22.03,705.787-.008,12.867-1.47,24.125-12.949,15.739-17.981,30.627-17.882,148.188.049,159.126.1,18.141,2.315,18.248,15.124.245,351.95.037,361.428-.347,17.035-18.312,17.227-86.93.1-98.462.1-19.984-2.577-27.782-14.438-9.355-14.172-12.557-18.72-9.011-13.168-28.113-13.021-958.479,0-968.029,0-16.452-2.289-16.576-16.31S10285.163,116.068,10285.163,116.068Z" transform="translate(-10284.965 -10.796)" fill="#0088ce"/>
</svg>
