<svg xmlns="http://www.w3.org/2000/svg" width="1920" height="968.324" viewBox="0 0 1920 968.324">
  <path id="Path_7754" data-name="Path 7754" d="M10285.42,720.4s-.755,204.683-.319,220.73,1.525,37.611,43.55,37.9,327.383-.358,352.206,0,46.57-4.146,61.289-20.612,27.235-29.9,35.944-38.5,19.872-16.1,40.111-16.587,837.671-.074,852.769.019,29.583,3.614,55.465,31.823,36.186,44.192,70.41,43.949,340.688-.121,365.834-.242,41.705-5.69,41.951-37.169.566-864.979.088-888.273-.8-41.867-42.1-42.339-199.853-.24-226.366-.24-45.944,6.332-63.872,35.483-21.508,34.831-28.868,46.007-20.719,32.364-64.633,32-1433.707,0-1455.665,0-37.825,5.625-38.108,40.084S10285.42,720.4,10285.42,720.4Z" transform="translate(-10284.965 -10.796)" fill="#0088ce"/>
</svg>
