<?xml version="1.0" encoding="utf-8"?>
<!-- Generator: Adobe Illustrator 24.3.0, SVG Export Plug-In . SVG Version: 6.00 Build 0)  -->
<svg version="1.1" id="Layer_1" xmlns="http://www.w3.org/2000/svg" xmlns:xlink="http://www.w3.org/1999/xlink" x="0px" y="0px"
	 viewBox="0 0 2033.5 930.1" style="enable-background:new 0 0 2033.5 930.1;" xml:space="preserve">
<style type="text/css">
	.st0{fill:#FFFFFF;}
	.st1{font-family:'Poppins-Regular';}
	.st2{font-size:18px;}
	.st3{font-size:14px;}
</style>
<g id="Hero_bg" transform="translate(43.545 0)">
	<path d="M1990.1,709.3c0-147.9-0.5-460.8-0.5-460.8S1990,117,1990,60.7h0V0h-71.2c-102-0.1-415,0.4-436.4,0.1
		c-24.3-0.4-45.6,4-60,19.8s-26.7,28.7-35.2,37c-8.5,8.2-19.5,15.5-39.3,15.9c-19.8,0.5-760.2,0.1-775,0c-14.8-0.1-29-3.5-54.3-30.6
		C493.2,15.1,483.1-0.2,449.6,0C416.1,0.2,25.8-0.1,1.2,0C0.8,0,0.3,0-0.2,0v0h-43.4v36c-0.2,29.3-0.4,784.2,0,849.3v44.9h109v0
		c91.4,0.1,238.5-0.2,257.7-0.2c26,0,45-6.1,62.5-34.1c17.5-28,21.1-33.5,28.3-44.2c7.2-10.7,20.3-31.1,63.3-30.7
		c43,0.3,1453.8,0,1475.3,0c2.6,0,5.2-0.1,7.6-0.2h29.9v-84.4C1990.1,728.1,1990.1,719,1990.1,709.3z M142,864.4
		c0,7.5-6,13.5-13.5,13.5c-7.4,0-13.5-6-13.5-13.5v-22.7c0-7.5,6-13.6,13.5-13.6c0,0,0,0,0,0c7.5,0,13.5,6.1,13.5,13.6V864.4z"/>
	<path d="M142,841.6v22.7c0,7.5-6,13.5-13.5,13.5c-7.4,0-13.5-6-13.5-13.5v-22.7c0-7.5,6-13.6,13.5-13.6c0,0,0,0,0,0
		C136,828,142,834.1,142,841.6z"/>
	<g id="Scroll_down_button" transform="translate(-200 12)">
		<path id="scroll-bubble-down" class="st0" d="M328.5,841.2c-1,0-1.8,0.8-1.8,1.8c0,1,0.8,1.8,1.8,1.8c1,0,1.8-0.8,1.8-1.8
			C330.3,842.1,329.5,841.2,328.5,841.2z M328.5,846.6c-1.4,0-2.5,1.1-2.5,2.5c0,1.4,1.1,2.6,2.5,2.6c1.4,0,2.6-1.1,2.6-2.5
			C331.1,847.8,329.9,846.6,328.5,846.6z M328.5,853.4c-1.9,0-3.5,1.6-3.5,3.5c0,2,1.5,3.5,3.5,3.6s3.5-1.5,3.6-3.5
			C332,855,330.5,853.5,328.5,853.4z M328.5,853.4c-1.9,0-3.5,1.6-3.5,3.5c0,2,1.5,3.5,3.5,3.6s3.5-1.5,3.6-3.5
			C332,855,330.5,853.5,328.5,853.4z M328.5,846.6c-1.4,0-2.5,1.1-2.5,2.5c0,1.4,1.1,2.6,2.5,2.6c1.4,0,2.6-1.1,2.6-2.5
			C331.1,847.8,329.9,846.6,328.5,846.6z M328.5,841.2c-1,0-1.8,0.8-1.8,1.8c0,1,0.8,1.8,1.8,1.8c1,0,1.8-0.8,1.8-1.8
			C330.3,842.1,329.5,841.2,328.5,841.2z M328.5,841.2c-1,0-1.8,0.8-1.8,1.8c0,1,0.8,1.8,1.8,1.8c1,0,1.8-0.8,1.8-1.8
			C330.3,842.1,329.5,841.2,328.5,841.2z M328.5,846.6c-1.4,0-2.5,1.1-2.5,2.5c0,1.4,1.1,2.6,2.5,2.6c1.4,0,2.6-1.1,2.6-2.5
			C331.1,847.8,329.9,846.6,328.5,846.6z M328.5,853.4c-1.9,0-3.5,1.6-3.5,3.5c0,2,1.5,3.5,3.5,3.6s3.5-1.5,3.6-3.5
			C332,855,330.5,853.5,328.5,853.4z M328.5,853.4c-1.9,0-3.5,1.6-3.5,3.5c0,2,1.5,3.5,3.5,3.6s3.5-1.5,3.6-3.5
			C332,855,330.5,853.5,328.5,853.4z M328.5,851.7c1.4,0,2.6-1.1,2.6-2.5c0-1.4-1.1-2.6-2.5-2.6c-1.4,0-2.5,1.1-2.5,2.5
			C325.9,850.5,327.1,851.7,328.5,851.7z M328.5,844.9c1,0,1.8-0.8,1.8-1.8c0-1-0.8-1.9-1.8-1.9c-1,0-1.8,0.8-1.8,1.8
			C326.7,844.1,327.5,844.9,328.5,844.9z M328.5,816C328.5,816,328.5,816,328.5,816c-7.5,0-13.5,6.2-13.5,13.6v22.7
			c0,7.5,6.1,13.5,13.5,13.5c7.5,0,13.5-6,13.5-13.5v-22.7C342,822.1,336,816,328.5,816z M340.2,829.6l0,22.7
			c0.2,6.5-4.9,11.9-11.4,12c-6.5,0.2-11.8-4.9-12-11.4v-23.4c0-6.5,5.2-11.7,11.7-11.7C335,817.9,340.2,823.2,340.2,829.6
			C340.2,829.6,340.2,829.6,340.2,829.6z M328.5,853.4c-1.9,0-3.5,1.6-3.5,3.5c0,2,1.5,3.5,3.5,3.6s3.5-1.5,3.6-3.5
			C332,855,330.5,853.5,328.5,853.4z M328.5,851.7c1.4,0,2.6-1.1,2.6-2.5c0-1.4-1.1-2.6-2.5-2.6c-1.4,0-2.5,1.1-2.5,2.5
			C325.9,850.5,327.1,851.7,328.5,851.7z M328.5,844.9c1,0,1.8-0.8,1.8-1.8c0-1-0.8-1.9-1.8-1.9c-1,0-1.8,0.8-1.8,1.8
			C326.7,844.1,327.5,844.9,328.5,844.9z M328.5,841.2c-1,0-1.8,0.8-1.8,1.8c0,1,0.8,1.8,1.8,1.8c1,0,1.8-0.8,1.8-1.8
			C330.3,842.1,329.5,841.2,328.5,841.2z M328.5,846.6c-1.4,0-2.5,1.1-2.5,2.5c0,1.4,1.1,2.6,2.5,2.6c1.4,0,2.6-1.1,2.6-2.5
			C331.1,847.8,329.9,846.6,328.5,846.6z M328.5,853.4c-1.9,0-3.5,1.6-3.5,3.5c0,2,1.5,3.5,3.5,3.6s3.5-1.5,3.6-3.5
			C332,855,330.5,853.5,328.5,853.4z M328.5,853.4c-1.9,0-3.5,1.6-3.5,3.5c0,2,1.5,3.5,3.5,3.6s3.5-1.5,3.6-3.5
			C332,855,330.5,853.5,328.5,853.4z M328.5,846.6c-1.4,0-2.5,1.1-2.5,2.5c0,1.4,1.1,2.6,2.5,2.6c1.4,0,2.6-1.1,2.6-2.5
			C331.1,847.8,329.9,846.6,328.5,846.6z M328.5,841.2c-1,0-1.8,0.8-1.8,1.8c0,1,0.8,1.8,1.8,1.8c1,0,1.8-0.8,1.8-1.8
			C330.3,842.1,329.5,841.2,328.5,841.2z M328.5,841.2c-1,0-1.8,0.8-1.8,1.8c0,1,0.8,1.8,1.8,1.8c1,0,1.8-0.8,1.8-1.8
			C330.3,842.1,329.5,841.2,328.5,841.2z M328.5,846.6c-1.4,0-2.5,1.1-2.5,2.5c0,1.4,1.1,2.6,2.5,2.6c1.4,0,2.6-1.1,2.6-2.5
			C331.1,847.8,329.9,846.6,328.5,846.6z M328.5,853.4c-1.9,0-3.5,1.6-3.5,3.5c0,2,1.5,3.5,3.5,3.6s3.5-1.5,3.6-3.5
			C332,855,330.5,853.5,328.5,853.4z M328.5,853.4c-1.9,0-3.5,1.6-3.5,3.5c0,2,1.5,3.5,3.5,3.6s3.5-1.5,3.6-3.5
			C332,855,330.5,853.5,328.5,853.4z M328.5,846.6c-1.4,0-2.5,1.1-2.5,2.5c0,1.4,1.1,2.6,2.5,2.6c1.4,0,2.6-1.1,2.6-2.5
			C331.1,847.8,329.9,846.6,328.5,846.6z M328.5,841.2c-1,0-1.8,0.8-1.8,1.8c0,1,0.8,1.8,1.8,1.8c1,0,1.8-0.8,1.8-1.8
			C330.3,842.1,329.5,841.2,328.5,841.2z"/>
		<text transform="matrix(1 0 0 1 357 835)" class="st0 st1 st2">Scroll down</text>
		<text transform="matrix(1 0 0 1 357 860)" class="st0 st1 st3">to discover more</text>
	</g>
</g>
<path d="M2033.6,709.3v24C2033.6,725.8,2033.6,717.8,2033.6,709.3L2033.6,709.3z"/>
</svg>
